<svg xmlns="http://www.w3.org/2000/svg" viewBox="0 0 100 100" width="100" height="100">
  <!-- Bagel outer ring -->
  <circle cx="50" cy="50" r="45" fill="#FF6B35" stroke="#E55A24" stroke-width="3"/>
  <!-- Bagel hole -->
  <circle cx="50" cy="50" r="18" fill="#F7F7F2"/>
  <!-- Sesame seeds -->
  <ellipse cx="30" cy="25" rx="4" ry="2.5" fill="#FFD23F" transform="rotate(-30 30 25)"/>
  <ellipse cx="70" cy="30" rx="4" ry="2.5" fill="#FFD23F" transform="rotate(20 70 30)"/>
  <ellipse cx="25" cy="55" rx="4" ry="2.5" fill="#FFD23F" transform="rotate(-60 25 55)"/>
  <ellipse cx="75" cy="60" rx="4" ry="2.5" fill="#FFD23F" transform="rotate(45 75 60)"/>
  <ellipse cx="45" cy="80" rx="4" ry="2.5" fill="#FFD23F" transform="rotate(10 45 80)"/>
  <ellipse cx="60" cy="20" rx="4" ry="2.5" fill="#FFD23F" transform="rotate(-15 60 20)"/>
  <!-- Privacy lock hint in center -->
  <rect x="44" y="46" width="12" height="10" rx="2" fill="#2D2D2A"/>
  <path d="M47 46 V43 A3 3 0 0 1 53 43 V46" fill="none" stroke="#2D2D2A" stroke-width="2"/>
</svg>
